<?xml version="1.0" encoding="UTF-8" standalone="no"?>
<!-- Created with Inkscape (http://www.inkscape.org/) -->

<svg
   width="350"
   height="300"
   viewBox="0 0 350 300"
   version="1.1"
   id="svg1"
   sodipodi:docname="logov1.svg"
   inkscape:version="1.3.1 (9b9bdc1480, 2023-11-25, custom)"
   xmlns:inkscape="http://www.inkscape.org/namespaces/inkscape"
   xmlns:sodipodi="http://sodipodi.sourceforge.net/DTD/sodipodi-0.dtd"
   xmlns="http://www.w3.org/2000/svg"
   xmlns:svg="http://www.w3.org/2000/svg">
  <sodipodi:namedview
     id="namedview1"
     pagecolor="#ffffff"
     bordercolor="#000000"
     borderopacity="0.25"
     inkscape:showpageshadow="2"
     inkscape:pageopacity="0.0"
     inkscape:pagecheckerboard="0"
     inkscape:deskcolor="#d1d1d1"
     inkscape:zoom="1.36"
     inkscape:cx="198.16176"
     inkscape:cy="156.61765"
     inkscape:window-width="1920"
     inkscape:window-height="1016"
     inkscape:window-x="0"
     inkscape:window-y="0"
     inkscape:window-maximized="1"
     inkscape:current-layer="svg1"
     inkscape:export-bgcolor="#fffffff3" />
  <defs
     id="defs1" />
  <g
     id="g1"
     transform="translate(2.5294118,1.4705882)">
    <path
       d="m 129.07509,199.60307 q -2.13334,0 -3.73334,-0.8 -1.6,-1.06667 -1.6,-2.93334 0,-4.26667 5.60001,-5.6 10.13334,-2.13334 13.86668,-5.33334 4.00001,-3.46667 4.00001,-12.26669 V 53.202892 q 0,-9.066677 -3.20001,-13.066682 -3.2,-4.266672 -12.80001,-6.400008 -3.46667,-0.800001 -4.80001,-2.133336 -1.33333,-1.600002 -1.33333,-3.466671 0,-1.600002 1.6,-2.66667 1.6,-1.333335 4.26667,-1.333335 6.13334,0 12.26668,0.266667 6.40001,0.266667 12.26668,0.800001 6.13334,0.266667 11.46668,0.266667 6.40001,0 11.20002,-0.533334 5.06667,-0.800001 10.93334,-1.333335 6.13334,-0.800001 14.66669,-0.800001 32.53337,0 51.46673,13.866684 19.20002,13.600016 19.20002,37.600046 0,16.80002 -7.20001,30.933375 -6.93334,14.13335 -21.33336,22.93336 -14.13335,8.53334 -36.00004,8.53334 -6.93334,0 -10.66668,-2.13334 -3.46667,-2.13333 -3.46667,-5.06667 0,-1.86667 1.6,-2.93333 1.86667,-1.33334 3.2,-1.33334 2.93334,0 5.06668,0.8 2.13333,0.53334 5.86667,0.53334 11.20002,0 16.80002,-12.53335 5.86668,-12.53335 5.86668,-33.06671 0,-24.533364 -8.00001,-35.46671 -8.00001,-10.933347 -22.40003,-10.933347 -7.46668,0 -11.46668,3.466671 -3.73334,3.200004 -3.73334,10.133345 l -0.26667,124.000151 q 0,8.53334 4.53334,12.26668 4.53334,3.46667 15.73335,5.86668 2.93334,0.53333 4.26668,1.86667 1.6,1.06666 1.6,3.46667 0,1.86667 -1.33334,2.93333 -1.33333,1.06667 -3.73333,1.06667 -5.86668,0 -13.60002,-0.53333 -7.46668,-0.26667 -14.93335,-0.53334 -7.46668,-0.26666 -12.80002,-0.26666 -5.60001,0 -12.26668,0.26666 -6.66667,0.26667 -13.86668,0.53334 -6.93335,0.53333 -12.80002,0.53333 z"
       id="text1"
       style="font-weight:bold;font-size:266.667px;font-family:'EB Garamond';-inkscape-font-specification:'EB Garamond, Bold';fill:#421b0c;stroke:#421b0c;stroke-width:0"
       aria-label="P" />
    <path
       d="m 296.25433,268.23381 q -0.64,0 -1.92,-1.49333 -1.06666,-1.28 -1.06666,-2.13333 0.42666,-3.2 0.64,-5.97333 0.42666,-2.98666 0.42666,-5.33332 v -1.28 q -4.26666,6.61332 -11.94664,10.87998 -7.46666,4.26666 -16.21331,4.26666 -11.94665,0 -21.3333,-5.97332 -9.17332,-5.97332 -14.50664,-16.21331 -5.33333,-10.23998 -5.33333,-22.39996 0,-14.50665 6.39999,-25.81329 6.39999,-11.30665 17.91997,-17.70664 11.51998,-6.61333 26.66663,-6.61333 3.19999,0 6.61332,0.64 3.62666,0.42667 6.61332,1.28 2.98666,0.64 2.77333,0.64 0.85333,0 0.85333,-2.77333 v -25.38662 q 0,-7.67999 -1.91999,-11.09332 -1.92,-3.41333 -6.39999,-4.26666 -2.56,-0.64 -2.56,-3.2 0,-2.77332 2.34666,-3.19999 7.89332,-1.70666 16.21331,-4.26666 8.53332,-2.77333 13.86664,-5.11999 2.77333,-1.28 3.84,-1.49333 1.06666,-0.42667 1.28,-0.42667 2.34666,0 2.34666,2.56 0,-0.64 -0.21333,1.70666 -0.21334,2.13333 -0.42667,5.75999 -0.21333,3.62666 -0.42667,7.25332 l -1.06666,107.51983 q 0,7.25332 1.06666,10.45332 1.06667,3.19999 3.84,3.19999 1.06666,0 2.13333,-0.21333 1.28,-0.21333 6.18665,-0.42667 2.98667,-0.21333 2.98667,2.13333 0,1.70667 -1.28,3.62667 -1.28,1.91999 -2.34666,1.91999 -7.67999,0.85333 -16.21331,2.77333 -8.31999,1.92 -16.21331,4.90666 -1.28,0.64 -2.13333,0.85333 -0.85333,0.42667 -1.49333,0.42667 z M 277.05436,252.6605 q 3.2,0 7.89332,-1.70666 4.90666,-1.70667 7.89332,-4.90666 l -0.21333,-47.14659 q 0,-3.84 -2.98666,-7.46666 -2.77333,-3.83999 -7.25332,-6.39999 -4.26666,-2.56 -8.53332,-2.56 -5.12,0 -9.59999,4.26666 -4.26666,4.05333 -7.03999,11.73332 -2.55999,7.46665 -2.55999,18.34664 0,8.74665 1.70666,15.35997 1.92,6.61332 5.11999,11.30665 3.2,4.47999 7.25332,6.82666 4.05333,2.34666 8.31999,2.34666 z"
       id="text1-6"
       style="font-weight:bold;font-size:213.333px;font-family:'EB Garamond';-inkscape-font-specification:'EB Garamond, Bold';fill:#421b0c;stroke:#421b0c;stroke-width:0"
       aria-label="d" />
    <path
       style="font-size:40px;font-family:'EB Garamond';-inkscape-font-specification:'EB Garamond, Normal';fill:#222222;stroke:#222222;stroke-width:0"
       d="m 10.04789,251.29961 q -0.1999997,0 -0.5199997,-0.08 -0.32,-0.04 -0.32,-0.28 0,-0.32 0.28,-0.48 0.32,-0.12 0.6399997,-0.24 0.6,-0.2 1.16,-0.48 0.56,-0.24 0.56,-1.04 v -20.28 q 0,-0.32 -0.2,-0.96 -0.16,-0.64 -0.56,-1.24 -0.4,-0.6 -1.08,-0.72 -0.1599997,-0.04 -0.2399997,-0.2 -0.08,-0.16 -0.08,-0.32 0,-0.2 0.08,-0.32 0.08,-0.12 0.2,-0.16 1.5199997,-0.36 2.5999997,-0.76 1.08,-0.44 2.04,-0.84 0.04,0 0.04,0 0,-0.04 0.04,-0.04 0.08,0 0.16,0.12 0.08,0.12 0.08,0.24 0,0.36 -0.12,1.16 -0.08,0.76 -0.08,1.24 0,0.32 0.04,0.36 0.4,-0.4 1.44,-1 1.08,-0.64 2.44,-1.12 1.36,-0.52 2.6,-0.52 2.08,0 3.52,1.12 1.48,1.08 2.24,2.84 0.8,1.72 0.8,3.6 0,1.8 -0.68,3.52 -0.68,1.68 -1.92,3.04 -1.24,1.36 -2.88,2.2 -1.64,0.8 -3.52,0.8 -0.56,0 -1.36,-0.2 -0.76,-0.16 -1.52,-0.44 -0.72,-0.28 -1.12,-0.64 -0.04,0 -0.08,0.48 -0.04,0.44 -0.08,0.92 0,0.52 0,0.64 v 7.48 q 0,0.52 0.4,0.8 0.44,0.32 0.96,0.44 0.56,0.16 0.96,0.28 0.32,0.12 0.6,0.24 0.32,0.16 0.32,0.48 0,0.24 -0.32,0.28 -0.32,0.08 -0.56,0.08 -1.16,0 -1.96,-0.12 -0.76,-0.08 -1.8,-0.08 -0.68,0 -1.12,0.04 -0.4,0.04 -0.84,0.08 -0.44,0.08 -1.24,0.08 z m 9.36,-12.08 q 0.6,0 1.44,-0.36 0.88,-0.36 1.72,-1.16 0.88,-0.8 1.44,-2.16 0.6,-1.36 0.6,-3.36 0,-2.32 -0.6,-3.72 -0.6,-1.4 -1.48,-2.12 -0.88,-0.72 -1.8,-0.96 -0.92,-0.24 -1.56,-0.24 -0.96,0 -2,0.4 -1,0.4 -1.72,0.92 -0.68,0.48 -0.68,0.76 0,0.88 -0.04,1.8 0,0.88 -0.04,1.72 0,0.84 -0.04,1.52 0,0.64 0,1 0,1.6 0.72,2.96 0.76,1.36 1.84,2.2 1.12,0.8 2.2,0.8 z m 18.319964,1.28 q -2.2,0 -3.84,-1.08 -1.64,-1.08 -2.56,-3.04 -0.92,-2 -0.92,-4.6 0,-2.32 1.04,-4.2 1.08,-1.92 2.84,-3.08 1.76,-1.16 3.84,-1.16 1.6,0 2.84,0.64 1.24,0.64 1.92,1.8 0.72,1.12 0.72,2.6 0,1.24 -1.2,1.24 h -8.44 q -0.56,0 -0.8,0.32 -0.2,0.28 -0.2,1.16 0,1.92 0.84,3.52 0.84,1.56 2.24,2.52 1.4,0.92 3.08,0.92 1.2,0 2.16,-0.44 1,-0.48 1.76,-1.36 0.16,-0.2 0.24,-0.24 0.08,-0.08 0.2,-0.08 0.32,0 0.32,0.4 0,0.76 -0.72,1.68 -0.6,0.76 -1.44,1.32 -0.84,0.56 -1.84,0.84 -1,0.32 -2.08,0.32 z m -3.68,-12.12 h 3.64 q 0.96,0 1.64,-0.04 0.68,-0.04 1.32,-0.16 0.2,-0.04 0.24,-0.24 0.08,-0.24 0.08,-0.64 0,-1.16 -1.04,-1.96 -1,-0.84 -2.4,-0.84 -0.92,0 -1.84,0.56 -0.92,0.52 -1.52,1.32 -0.6,0.8 -0.6,1.6 0,0.4 0.48,0.4 z m 24.639967,12.28 q -0.08,0 -0.28,-0.16 -0.16,-0.16 -0.16,-0.24 0,-0.4 0.08,-1.12 0.12,-0.76 0.12,-1.28 v -0.24 q -0.6,0.92 -1.92,1.88 -1.32,0.96 -3.32,0.96 -2.28,0 -3.96,-1.2 -1.64,-1.2 -2.56,-3.08 -0.88,-1.88 -0.88,-3.88 0,-2.32 1.08,-4.36 1.08,-2.04 3.08,-3.32 2.04,-1.28 4.84,-1.28 0.8,0 1.6,0.16 0.84,0.12 1.28,0.28 0.36,0.12 0.52,0.12 0.28,0 0.28,-0.96 v -5.68 q 0,-1.64 -0.52,-2.2 -0.52,-0.56 -1.48,-0.72 -0.36,-0.08 -0.36,-0.52 0,-0.36 0.32,-0.48 1.76,-0.44 2.76,-0.84 1,-0.4 1.56,-0.64 0.16,-0.08 0.28,-0.08 0.16,-0.04 0.24,-0.04 0.24,0 0.28,0.24 0,0.24 -0.08,0.84 -0.04,0.56 -0.12,1.68 -0.08,1.12 -0.08,2.92 v 18.08 q 0,1.36 0.2,2 0.2,0.6 0.64,0.6 0.2,0 0.68,-0.04 0.52,-0.04 1.04,-0.08 0.72,-0.04 0.72,0.36 0,0.28 -0.2,0.52 -0.16,0.2 -0.36,0.2 -1.12,0.16 -2.2,0.48 -1.08,0.28 -2.48,0.88 -0.32,0.16 -0.44,0.2 -0.08,0.04 -0.2,0.04 z m -4.04,-2.28 q 1.04,0 2.04,-0.52 1,-0.56 1.76,-1.44 l 0.04,-7.2 q 0,-1.08 -0.64,-2.12 -0.6,-1.04 -1.72,-1.68 -1.08,-0.68 -2.56,-0.68 -0.92,0 -2.08,0.56 -1.16,0.56 -2,2 -0.84,1.4 -0.84,4.08 0,2.28 0.68,3.68 0.68,1.36 1.64,2.08 1,0.72 2,1 1.04,0.24 1.68,0.24 z m 11.959944,1.64 q -0.4,0 -0.6,-0.12 -0.2,-0.08 -0.2,-0.32 0,-0.32 0.24,-0.4 0.24,-0.12 0.68,-0.24 0.76,-0.2 1.12,-0.56 0.4,-0.4 0.4,-0.96 v -8.6 q 0,-1.08 -0.32,-1.88 -0.32,-0.8 -1.32,-1 -0.16,-0.04 -0.28,-0.2 -0.12,-0.16 -0.12,-0.32 0,-0.4 0.36,-0.48 1.04,-0.32 2.16,-0.92 1.16,-0.64 1.8,-1.04 0.24,-0.16 0.36,-0.2 0.16,-0.08 0.24,-0.08 0.2,0 0.2,0.28 0,0.12 -0.04,0.6 0,0.48 -0.04,1.12 0,0.64 -0.04,1.28 0,0.08 0.08,0.08 0.64,-0.8 1.4,-1.4 0.8,-0.6 1.6,-0.96 0.84,-0.36 1.6,-0.36 0.84,0 1.36,0.36 0.56,0.36 0.56,0.92 0,0.4 -0.24,0.88 -0.2,0.48 -0.56,0.84 -0.36,0.36 -0.76,0.36 -0.24,0 -0.52,-0.08 -0.28,-0.12 -0.6,-0.28 -0.32,-0.12 -0.64,-0.24 -0.32,-0.12 -0.64,-0.12 -0.96,0 -1.88,0.68 -0.88,0.68 -0.88,2.68 v 8.08 q 0,0.52 0.56,0.88 0.56,0.32 1.56,0.64 0.44,0.12 0.68,0.24 0.24,0.12 0.24,0.4 0,0.44 -0.8,0.44 -1.2,0 -1.84,-0.12 -0.6,-0.08 -1.64,-0.08 -0.68,0 -1.12,0.04 -0.4,0.04 -0.88,0.08 -0.44,0.08 -1.24,0.08 z m 20.759986,0.44 q -2.24,0 -4.04,-1.04 -1.8,-1.04 -2.88,-2.84 -1.04,-1.84 -1.04,-4.16 0,-1.68 0.64,-3.28 0.68,-1.6 1.88,-2.92 1.2,-1.32 2.8,-2.08 1.6,-0.8 3.44,-0.8 2.32,0 4.16,1.12 1.88,1.12 2.96,2.96 1.12,1.8 1.12,3.96 0,2.32 -1.04,4.4 -1,2.08 -3,3.4 -2,1.28 -5,1.28 z m 0.84,-1.2 q 1.36,0 2.44,-0.52 1.08,-0.52 1.68,-1.68 0.48,-0.92 0.64,-2.24 0.16,-1.32 0.16,-2.48 0,-1.92 -0.72,-3.68 -0.68,-1.8 -1.96,-2.92 -1.24,-1.16 -2.96,-1.16 -1.08,0 -1.96,0.36 -0.84,0.32 -1.56,1.24 -0.8,1 -1.04,2.44 -0.24,1.44 -0.24,2.88 0,1.96 0.72,3.76 0.72,1.76 1.96,2.88 1.24,1.12 2.84,1.12 z m 31.879909,1.4 q -0.08,0 -0.28,-0.16 -0.16,-0.16 -0.16,-0.24 0,-0.4 0.08,-1.12 0.12,-0.76 0.12,-1.28 v -0.24 q -0.6,0.92 -1.92,1.88 -1.32,0.96 -3.32,0.96 -2.28,0 -3.96,-1.2 -1.64,-1.2 -2.56,-3.08 -0.88,-1.88 -0.88,-3.88 0,-2.32 1.08,-4.36 1.08,-2.04 3.08,-3.32 2.04,-1.28 4.84,-1.28 0.8,0 1.6,0.16 0.84,0.12 1.28,0.28 0.36,0.12 0.52,0.12 0.28,0 0.28,-0.96 v -5.68 q 0,-1.64 -0.52,-2.2 -0.52,-0.56 -1.48,-0.72 -0.36,-0.08 -0.36,-0.52 0,-0.36 0.32,-0.48 1.76,-0.44 2.76,-0.84 1,-0.4 1.56,-0.64 0.16,-0.08 0.28,-0.08 0.16,-0.04 0.24,-0.04 0.24,0 0.28,0.24 0,0.24 -0.08,0.84 -0.04,0.56 -0.12,1.68 -0.08,1.12 -0.08,2.92 v 18.08 q 0,1.36 0.2,2 0.2,0.6 0.64,0.6 0.2,0 0.68,-0.04 0.52,-0.04 1.04,-0.08 0.72,-0.04 0.72,0.36 0,0.28 -0.2,0.52 -0.16,0.2 -0.36,0.2 -1.12,0.16 -2.2,0.48 -1.08,0.28 -2.48,0.88 -0.32,0.16 -0.44,0.2 -0.08,0.04 -0.2,0.04 z m -4.04,-2.28 q 1.04,0 2.04,-0.52 1,-0.56 1.76,-1.44 l 0.04,-7.2 q 0,-1.08 -0.64,-2.12 -0.6,-1.04 -1.72,-1.68 -1.08,-0.68 -2.56,-0.68 -0.92,0 -2.08,0.56 -1.16,0.56 -2,2 -0.84,1.4 -0.84,4.08 0,2.28 0.68,3.68 0.68,1.36 1.64,2.08 1,0.72 2,1 1.04,0.24 1.68,0.24 z m 24.63995,2.28 q -0.28,0 -0.28,-0.32 0,-0.4 0.08,-1.16 0.12,-0.8 0.12,-1.32 0,-0.08 0,-0.12 0,-0.08 0,-0.12 -1.56,1.52 -3.16,2.2 -1.56,0.64 -3.44,0.64 -1.28,0 -2.32,-0.56 -1.04,-0.52 -1.64,-1.56 -0.6,-1.08 -0.6,-2.64 v -8.12 q 0,-0.88 -0.4,-1.4 -0.4,-0.52 -1.32,-0.88 -0.2,-0.08 -0.36,-0.2 -0.16,-0.12 -0.16,-0.44 0,-0.36 0.16,-0.48 0.2,-0.12 0.44,-0.16 1.36,-0.08 2.08,-0.2 0.76,-0.16 1.88,-0.44 0.12,-0.04 0.16,-0.04 0.08,0 0.16,0 0.44,0 0.4,0.56 -0.12,0.92 -0.2,1.56 -0.04,0.6 -0.04,1.52 v 7.8 q 0,0.96 0.48,1.8 0.48,0.8 1.24,1.32 0.8,0.52 1.64,0.52 1.04,0 1.8,-0.12 0.8,-0.12 1.56,-0.68 0.44,-0.32 1.12,-1.04 0.68,-0.72 0.68,-1.96 v -7.32 q 0,-0.84 -0.52,-1.24 -0.48,-0.44 -1.12,-0.6 -0.64,-0.16 -1.04,-0.16 -0.36,0 -0.6,-0.12 -0.24,-0.16 -0.24,-0.56 0,-0.36 0.24,-0.48 0.28,-0.12 0.6,-0.12 1.24,-0.04 2.04,-0.08 0.84,-0.08 1.48,-0.2 0.68,-0.16 1.4,-0.36 0.08,-0.04 0.2,-0.04 0.12,-0.04 0.2,-0.04 0.52,0 0.52,0.44 0,0.04 -0.04,0.16 0,0.08 -0.04,0.2 -0.04,0.12 -0.12,0.68 -0.04,0.56 -0.12,1.16 -0.04,0.6 -0.04,0.92 v 9.24 q 0,1.08 0.2,1.56 0.24,0.44 0.52,0.44 0.32,0 0.92,-0.04 0.64,-0.08 0.92,-0.08 0.2,0 0.4,0.08 0.2,0.08 0.2,0.44 0,0.32 -0.16,0.44 -0.16,0.08 -0.4,0.12 -1.56,0.2 -2.68,0.6 -1.12,0.4 -2,0.76 -0.12,0.04 -0.36,0.12 -0.24,0.12 -0.44,0.12 z m 11.11994,-0.2 q -0.72,0 -1.48,-0.56 -0.72,-0.56 -1.24,-1.36 -0.48,-0.8 -0.48,-1.52 0,-1.28 0.68,-2 0.68,-0.72 2.16,-1.32 l 4.08,-1.68 q 0.8,-0.32 0.92,-0.56 0.16,-0.24 0.2,-1.04 l 0.08,-2.56 q 0.04,-1.04 -0.6,-1.8 -0.6,-0.76 -1.76,-0.76 -0.6,0 -1.2,0.2 -0.6,0.2 -1,0.52 -0.24,0.16 -0.32,0.48 -0.08,0.32 -0.08,0.68 0,0.16 0,0.36 0.04,0.2 0.04,0.36 0,0.2 -0.52,0.56 -0.48,0.32 -1.12,0.6 -0.6,0.24 -1,0.24 -0.2,0 -0.32,-0.08 -0.12,-0.12 -0.12,-0.28 0,-0.64 0.4,-1.36 0.44,-0.76 1.2,-1.4 0.92,-0.84 2,-1.48 1.08,-0.64 2.12,-1 1.04,-0.36 1.84,-0.36 1.44,0 2.36,1.04 0.96,1 0.92,2.52 l -0.2,9.6 q -0.04,0.84 0.36,1.36 0.44,0.52 1.08,0.52 1,0 1.48,-0.44 0.2,-0.2 0.32,-0.2 0.2,0 0.32,0.12 0.12,0.12 0.12,0.32 0,0.44 -0.44,0.88 -0.64,0.64 -1.4,1 -0.72,0.4 -1.36,0.4 -1.84,0 -2.92,-2.08 h -0.12 q -1.32,1.08 -2.52,1.56 -1.2,0.52 -2.48,0.52 z m 1.88,-1.92 q 0.8,0 1.36,-0.24 0.56,-0.28 1,-0.72 0.2,-0.2 0.32,-0.52 0.16,-0.36 0.2,-1.12 l 0.08,-1.96 q 0.04,-0.44 -0.04,-0.64 -0.08,-0.2 -0.32,-0.2 -0.08,0 -0.28,0.04 -0.2,0.04 -0.52,0.16 -2.12,0.76 -2.96,1.6 -0.8,0.8 -0.8,1.48 0,1.04 0.6,1.6 0.64,0.52 1.36,0.52 z m 11.35993,1.48 q -0.4,0 -0.6,-0.12 -0.2,-0.08 -0.2,-0.32 0,-0.32 0.24,-0.4 0.24,-0.12 0.68,-0.24 0.76,-0.2 1.12,-0.56 0.4,-0.4 0.4,-0.96 v -8.6 q 0,-1.08 -0.32,-1.88 -0.32,-0.8 -1.32,-1 -0.16,-0.04 -0.28,-0.2 -0.12,-0.16 -0.12,-0.32 0,-0.4 0.36,-0.48 1.04,-0.32 2.16,-0.92 1.16,-0.64 1.8,-1.04 0.24,-0.16 0.36,-0.2 0.16,-0.08 0.24,-0.08 0.2,0 0.2,0.28 0,0.12 -0.04,0.6 0,0.48 -0.04,1.12 0,0.64 -0.04,1.28 0,0.08 0.08,0.08 0.64,-0.8 1.4,-1.4 0.8,-0.6 1.6,-0.96 0.84,-0.36 1.6,-0.36 0.84,0 1.36,0.36 0.56,0.36 0.56,0.92 0,0.4 -0.24,0.88 -0.2,0.48 -0.56,0.84 -0.36,0.36 -0.76,0.36 -0.24,0 -0.52,-0.08 -0.28,-0.12 -0.6,-0.28 -0.32,-0.12 -0.64,-0.24 -0.32,-0.12 -0.64,-0.12 -0.96,0 -1.88,0.68 -0.88,0.68 -0.88,2.68 v 8.08 q 0,0.52 0.56,0.88 0.56,0.32 1.56,0.64 0.44,0.12 0.68,0.24 0.24,0.12 0.24,0.4 0,0.44 -0.8,0.44 -1.2,0 -1.84,-0.12 -0.6,-0.08 -1.64,-0.08 -0.68,0 -1.12,0.04 -0.4,0.04 -0.88,0.08 -0.44,0.08 -1.24,0.08 z m 18.95998,0.44 q -1.96,0 -3.08,-1.2 -1.08,-1.2 -1.08,-3.56 v -9.28 q 0,-0.32 -0.24,-0.44 -0.24,-0.16 -1.04,-0.16 h -0.24 q -0.2,0 -0.36,-0.24 -0.12,-0.28 -0.12,-0.56 0,-0.08 0.12,-0.24 0.12,-0.16 0.16,-0.2 0.8,-0.56 1.44,-1.12 0.68,-0.56 1.2,-1.08 0.56,-0.56 0.92,-1 0.2,-0.2 0.32,-0.32 0.16,-0.16 0.36,-0.16 0.2,0 0.36,0.08 0.2,0.08 0.16,0.36 l -0.2,1.8 q -0.04,0.44 0.2,0.6 0.24,0.16 0.76,0.16 h 4.56 q 0.16,0 0.28,0.28 0.12,0.24 0.12,0.6 0,0.36 -0.12,0.72 -0.12,0.32 -0.28,0.32 h -3.96 q -1,0 -1.32,0.16 -0.28,0.16 -0.28,0.96 v 7.88 q 0,1.6 0.68,2.52 0.68,0.92 1.96,0.92 1.16,0 1.8,-0.16 0.64,-0.2 1.16,-0.56 0.08,-0.08 0.16,-0.08 0.16,0 0.2,0.2 0.08,0.16 0.08,0.36 0,0.2 -0.68,0.8 -0.64,0.6 -1.72,1.12 -1.04,0.52 -2.28,0.52 z m 13.51997,0.04 q -2.2,0 -3.84,-1.08 -1.64,-1.08 -2.56,-3.04 -0.92,-2 -0.92,-4.6 0,-2.32 1.04,-4.2 1.08,-1.92 2.84,-3.08 1.76,-1.16 3.84,-1.16 1.6,0 2.84,0.64 1.24,0.64 1.92,1.8 0.72,1.12 0.72,2.6 0,1.24 -1.2,1.24 h -8.44 q -0.56,0 -0.8,0.32 -0.2,0.28 -0.2,1.16 0,1.92 0.84,3.52 0.84,1.56 2.24,2.52 1.4,0.92 3.08,0.92 1.2,0 2.16,-0.44 1,-0.48 1.76,-1.36 0.16,-0.2 0.24,-0.24 0.08,-0.08 0.2,-0.08 0.32,0 0.32,0.4 0,0.76 -0.72,1.68 -0.6,0.76 -1.44,1.32 -0.84,0.56 -1.84,0.84 -1,0.32 -2.08,0.32 z m -3.68,-12.12 h 3.64 q 0.96,0 1.64,-0.04 0.68,-0.04 1.32,-0.16 0.2,-0.04 0.24,-0.24 0.08,-0.24 0.08,-0.64 0,-1.16 -1.04,-1.96 -1,-0.84 -2.4,-0.84 -0.92,0 -1.84,0.56 -0.92,0.52 -1.52,1.32 -0.6,0.8 -0.6,1.6 0,0.4 0.48,0.4 z m 15.35998,12.08 q -0.88,0 -1.56,-0.64 -0.64,-0.68 -0.64,-1.56 0,-0.92 0.64,-1.56 0.68,-0.64 1.56,-0.64 0.92,0 1.56,0.64 0.64,0.64 0.64,1.56 0,0.88 -0.64,1.56 -0.64,0.64 -1.56,0.64 z"
       id="text2"
       aria-label="pedro duarte." />
  </g>
</svg>
