<?xml version="1.0" encoding="UTF-8" standalone="no"?>
<!-- Created with Inkscape (http://www.inkscape.org/) -->

<svg
   width="300"
   height="300"
   viewBox="0 0 300 300"
   version="1.1"
   id="svg1"
   sodipodi:docname="logov2.svg"
   inkscape:version="1.3.1 (9b9bdc1480, 2023-11-25, custom)"
   xmlns:inkscape="http://www.inkscape.org/namespaces/inkscape"
   xmlns:sodipodi="http://sodipodi.sourceforge.net/DTD/sodipodi-0.dtd"
   xmlns="http://www.w3.org/2000/svg"
   xmlns:svg="http://www.w3.org/2000/svg">
  <sodipodi:namedview
     id="namedview1"
     pagecolor="#ffffff"
     bordercolor="#000000"
     borderopacity="0.25"
     inkscape:showpageshadow="2"
     inkscape:pageopacity="0.0"
     inkscape:pagecheckerboard="0"
     inkscape:deskcolor="#d1d1d1"
     inkscape:zoom="2.72"
     inkscape:cx="150.18382"
     inkscape:cy="150"
     inkscape:window-width="1920"
     inkscape:window-height="1016"
     inkscape:window-x="0"
     inkscape:window-y="0"
     inkscape:window-maximized="1"
     inkscape:current-layer="svg1" />
  <defs
     id="defs1" />
  <g
     id="layer1">
    <g
       id="g1"
       transform="translate(-25.615944,1.067331)">
      <g
         id="g2"
         transform="translate(-24.925971,-1.067331)">
        <path
           style="font-weight:bold;font-size:253.333px;font-family:'EB Garamond';-inkscape-font-specification:'EB Garamond, Bold';fill:#421b0c;stroke:#421b0c;stroke-width:0"
           d="m 80.536239,196.29171 q -2.026664,0 -3.546662,-0.76 -1.519998,-1.01333 -1.519998,-2.78667 0,-4.05332 5.319993,-5.31999 9.626654,-2.02666 13.173315,-5.06666 3.799995,-3.29333 3.799995,-11.65332 V 57.211894 q 0,-8.613322 -3.039996,-12.413317 -3.039996,-4.053328 -12.159983,-6.079992 -3.293329,-0.759999 -4.559994,-2.026664 -1.266665,-1.519998 -1.266665,-3.293328 0,-1.519998 1.519998,-2.53333 1.519998,-1.266665 4.053328,-1.266665 5.826659,0 11.653317,0.253333 6.079993,0.253333 11.653323,0.759999 5.82665,0.253333 10.89331,0.253333 6.08,0 10.63999,-0.506666 4.81333,-0.759999 10.38665,-1.266665 5.82666,-0.759999 13.93332,-0.759999 30.90662,0 48.89326,13.173315 18.23998,12.919983 18.23998,35.719952 0,15.959979 -6.83999,29.38663 -6.58666,13.42665 -20.26664,21.78663 -13.42665,8.10666 -34.19995,8.10666 -6.58666,0 -10.13332,-2.02666 -3.29333,-2.02667 -3.29333,-4.81333 0,-1.77333 1.51999,-2.78666 1.77334,-1.26667 3.04,-1.26667 2.78666,0 4.81333,0.76 2.02666,0.50667 5.57332,0.50667 10.63999,0 15.95998,-11.90665 5.57333,-11.90665 5.57333,-31.413295 0,-23.306635 -7.59999,-33.693288 -7.59999,-10.386653 -21.27997,-10.386653 -7.09333,0 -10.89332,3.293329 -3.54666,3.039996 -3.54666,9.626654 l -0.25334,117.799843 q 0,8.10665 4.30666,11.65332 4.30666,3.29333 14.94665,5.57332 2.78666,0.50667 4.05333,1.77333 1.52,1.01333 1.52,3.29333 0,1.77333 -1.26667,2.78666 -1.26666,1.01334 -3.54666,1.01334 -5.57333,0 -12.91998,-0.50667 -7.09333,-0.25333 -14.18665,-0.50667 -7.09332,-0.25333 -12.15998,-0.25333 -5.32,0 -11.65332,0.25333 -6.333327,0.25334 -13.173318,0.50667 -6.586657,0.50667 -12.159983,0.50667 z"
           id="text1"
           aria-label="P" />
        <path
           d="m 242.20884,264.96245 q -0.64,0 -1.91999,-1.49334 -1.06667,-1.27999 -1.06667,-2.13333 0.42667,-3.19999 0.64,-5.97332 0.42667,-2.98666 0.42667,-5.33332 v -1.28 q -4.26666,6.61332 -11.94665,10.87998 -7.46666,4.26666 -16.21331,4.26666 -11.94665,0 -21.3333,-5.97332 -9.17332,-5.97333 -14.50664,-16.21331 -5.33333,-10.23998 -5.33333,-22.39996 0,-14.50665 6.39999,-25.8133 6.39999,-11.30665 17.91998,-17.70664 11.51998,-6.61332 26.66662,-6.61332 3.19999,0 6.61332,0.64 3.62666,0.42667 6.61332,1.28 2.98667,0.64 2.77333,0.64 0.85334,0 0.85334,-2.77333 v -25.38663 q 0,-7.67998 -1.92,-11.09331 -1.92,-3.41333 -6.39999,-4.26666 -2.56,-0.64 -2.56,-3.2 0,-2.77333 2.34667,-3.19999 7.89332,-1.70667 16.2133,-4.26666 8.53332,-2.77333 13.86665,-5.11999 2.77333,-1.28 3.83999,-1.49334 1.06667,-0.42666 1.28,-0.42666 2.34666,0 2.34666,2.55999 0,-0.63999 -0.21333,1.70667 -0.21333,2.13333 -0.42667,5.75999 -0.21333,3.62666 -0.42666,7.25332 l -1.06667,107.51983 q 0,7.25332 1.06667,10.45332 1.06666,3.19999 3.83999,3.19999 1.06667,0 2.13333,-0.21333 1.28,-0.21333 6.18666,-0.42667 2.98666,-0.21333 2.98666,2.13333 0,1.70667 -1.28,3.62666 -1.28,1.92 -2.34666,1.92 -7.67999,0.85333 -16.21331,2.77333 -8.31998,1.92 -16.21331,4.90666 -1.27999,0.64 -2.13333,0.85333 -0.85333,0.42667 -1.49333,0.42667 z m -19.19997,-15.57331 q 3.2,0 7.89333,-1.70667 4.90665,-1.70666 7.89332,-4.90666 l -0.21334,-47.14659 q 0,-3.83999 -2.98666,-7.46665 -2.77333,-3.84 -7.25332,-6.39999 -4.26666,-2.56 -8.53332,-2.56 -5.11999,0 -9.59999,4.26666 -4.26666,4.05333 -7.03998,11.73332 -2.56,7.46665 -2.56,18.34663 0,8.74666 1.70666,15.35998 1.92,6.61332 5.12,11.30665 3.19999,4.47999 7.25332,6.82665 4.05332,2.34667 8.31998,2.34667 z m 86.82643,17.91997 q -6.82666,0 -11.94665,-5.11999 -5.11999,-4.90666 -5.11999,-11.94665 0,-7.46666 5.11999,-12.58665 5.11999,-5.11999 11.94665,-5.11999 7.67998,0 12.58664,5.11999 5.11999,5.11999 5.11999,12.58665 0,7.03999 -5.11999,11.94665 -4.90666,5.11999 -12.58664,5.11999 z"
           id="text1-6"
           style="font-weight:bold;font-size:213.333px;font-family:'EB Garamond';-inkscape-font-specification:'EB Garamond, Bold';fill:#421b0c;stroke:#421b0c;stroke-width:0"
           aria-label="d." />
      </g>
    </g>
  </g>
</svg>
